<svg width="121" height="121" viewBox="0 0 121 121" fill="none" xmlns="http://www.w3.org/2000/svg">
<g clip-path="url(#clip0_1540_16419)">
<mask id="mask0_1540_16419" style="mask-type:luminance" maskUnits="userSpaceOnUse" x="0" y="0" width="121" height="121">
<path d="M120.5 0.5H0.5V120.5H120.5V0.5Z" fill="white"/>
</mask>
<g mask="url(#mask0_1540_16419)">
<path d="M60.5 108.1C87.008 108.1 108.5 86.6081 108.5 60.1001C108.5 33.5921 87.008 12.1001 60.5 12.1001C33.992 12.1001 12.5 33.5921 12.5 60.1001C12.5 86.6081 33.992 108.1 60.5 108.1Z" fill="#F1F4F9"/>
<path fill-rule="evenodd" clip-rule="evenodd" d="M82.4806 60.7856L85.9164 66.5017C86.5335 67.525 86.9114 68.6745 87.022 69.8644C87.1326 71.0543 86.9729 72.2537 86.5549 73.3732C86.133 74.4943 85.4666 75.5071 84.604 76.3382C83.7414 77.1692 82.7044 77.7974 81.5684 78.1772C78.2867 79.2789 74.921 80.1127 71.5044 80.6704C71.1699 80.7312 70.8355 80.792 70.501 80.8225C69.9537 80.9137 69.4064 80.9745 68.8592 81.0353C68.1902 81.1265 67.4909 81.1873 66.7916 81.2481C64.9065 81.4306 63.0214 81.5218 61.0755 81.5218C59.1296 81.5218 57.1836 81.4306 55.2681 81.2481C54.4472 81.1873 53.6567 81.0961 52.8661 80.9745L51.5283 80.792C51.3611 80.7616 51.1938 80.7388 51.0266 80.716C50.8594 80.6932 50.6922 80.6704 50.5249 80.64C47.1427 80.0745 43.8087 79.2512 40.5521 78.1772C39.3948 77.8203 38.3336 77.2052 37.4487 76.3782C36.5639 75.5513 35.8784 74.5342 35.4441 73.4036C35.0492 72.2625 34.9152 71.0474 35.052 69.8477C35.1888 68.648 35.5929 67.4942 36.2346 66.4713L39.6704 60.7551C40.4977 59.1725 40.9747 57.4304 41.069 55.6471V49.9918C41.069 44.6898 43.1752 39.6049 46.9243 35.8558C50.6734 32.1067 55.7583 30.0005 61.0603 30.0005C66.3623 30.0005 71.4472 32.1067 75.1962 35.8558C78.9453 39.6049 81.0516 44.6898 81.0516 49.9918V55.6775C81.1419 57.4653 81.6301 59.2104 82.4806 60.7856ZM62.6182 55.7912C63.0516 55.3579 63.295 54.7701 63.295 54.1573V44.7317C63.295 44.1189 63.0516 43.5311 62.6182 43.0977C62.1849 42.6644 61.5971 42.4209 60.9843 42.4209C60.3714 42.4209 59.7836 42.6644 59.3503 43.0977C58.9169 43.5311 58.6735 44.1189 58.6735 44.7317V54.1573C58.6735 54.7701 58.9169 55.3579 59.3503 55.7912C59.7836 56.2246 60.3714 56.468 60.9843 56.468C61.5971 56.468 62.1849 56.2246 62.6182 55.7912ZM66.2717 88.9764C67.8111 87.8939 68.98 86.3637 69.6194 84.5936L68.1295 84.7761C67.7189 84.8377 67.2944 84.8715 66.8654 84.9057C66.6591 84.9222 66.4518 84.9387 66.2444 84.9585C64.5418 85.1105 62.8391 85.2017 61.0756 85.2017C59.3121 85.2017 57.5486 85.1105 55.8155 84.9585C55.0858 84.8977 54.3561 84.8065 53.6568 84.7152C53.4567 84.6867 53.2633 84.6648 53.0735 84.6433C52.8595 84.6191 52.65 84.5954 52.4406 84.5632C52.8685 85.8429 53.5985 87.0006 54.5689 87.9382C55.409 88.7957 56.412 89.4768 57.5189 89.9414C58.6258 90.4061 59.8143 90.6451 61.0148 90.6442C62.8968 90.6413 64.7322 90.059 66.2717 88.9764Z" fill="white"/>
<path d="M115.76 19.0679H91.7277C90.6077 19.0679 89.6997 20.0239 89.6997 21.1999V33.0879C89.6997 34.2679 90.6077 35.2239 91.7277 35.2239H115.76C116.88 35.2239 117.788 34.2679 117.788 33.0879V21.1999C117.788 20.0199 116.88 19.0679 115.76 19.0679Z" fill="#F1F4F9"/>
<path d="M95.6998 29.6999C97.0238 29.6999 98.0998 28.6239 98.0998 27.2999C98.0998 25.9759 97.0238 24.8999 95.6998 24.8999C94.3758 24.8999 93.2998 25.9759 93.2998 27.2999C93.2998 28.6239 94.3758 29.6999 95.6998 29.6999Z" fill="white"/>
<path d="M103.7 24.8999H111.7C113.024 24.8999 114.1 25.9759 114.1 27.2999C114.1 28.6239 113.024 29.6999 111.7 29.6999H103.7C102.376 29.6999 101.3 28.6239 101.3 27.2999C101.3 25.9759 102.376 24.8999 103.7 24.8999Z" fill="white"/>
<path d="M99.6 76.6005C99.6 87.4067 90.7528 96.2005 79.8 96.2005C68.8472 96.2005 60 87.4067 60 76.6005C60 65.7943 68.8472 57.0005 79.8 57.0005C90.7528 57.0005 99.6 65.7943 99.6 76.6005Z" fill="url(#paint0_linear_1540_16419)" fill-opacity="0.1" stroke="#CBD4E1" stroke-width="4"/>
<path d="M83.5679 76.6003L88.8439 71.3443C89.3399 70.8243 89.6079 70.1323 89.5999 69.4163C89.5919 68.7003 89.2999 68.0203 88.7919 67.5123C88.2839 67.0083 87.5959 66.7163 86.8759 66.7083C86.1559 66.7003 85.4599 66.9683 84.9359 67.4603L79.6479 72.7163L74.3719 67.4603C74.1199 67.1923 73.8119 66.9803 73.4759 66.8323C73.1359 66.6843 72.7719 66.6043 72.4039 66.6003C72.0359 66.5963 71.6679 66.6643 71.3239 66.8003C70.9799 66.9403 70.6719 67.1443 70.4079 67.4043C70.1479 67.6643 69.9399 67.9723 69.7999 68.3123C69.6599 68.6523 69.5919 69.0163 69.5959 69.3843C69.5999 69.7523 69.6799 70.1123 69.8279 70.4523C69.9759 70.7883 70.1919 71.0923 70.4599 71.3443L75.7439 76.6003L70.4599 81.8563C70.1919 82.1083 69.9759 82.4123 69.8279 82.7483C69.6799 83.0843 69.5999 83.4483 69.5959 83.8163C69.5919 84.1843 69.6599 84.5483 69.7999 84.8883C69.9399 85.2283 70.1439 85.5363 70.4079 85.7963C70.6679 86.0563 70.9799 86.2603 71.3239 86.4003C71.6679 86.5403 72.0319 86.6083 72.4039 86.6003C72.7759 86.5923 73.1399 86.5163 73.4759 86.3683C73.8159 86.2203 74.1199 86.0083 74.3719 85.7403L79.6599 80.4843L84.9479 85.7403C85.4759 86.2003 86.1599 86.4483 86.8639 86.4243C87.5679 86.4003 88.2359 86.1123 88.7319 85.6203C89.2279 85.1243 89.5159 84.4603 89.5359 83.7603C89.5559 83.0603 89.3079 82.3803 88.8399 81.8563L83.5639 76.6003H83.5679Z" fill="#F58F00"/>
<path fill-rule="evenodd" clip-rule="evenodd" d="M23.0239 36.968C23.0159 36.396 22.9439 35.824 22.8039 35.244C22.2999 33.212 20.0639 31.908 17.6799 31.6C15.2959 31.292 12.8199 31.992 11.8639 33.76C11.3159 34.772 11.2439 35.644 11.4639 36.376C11.6879 37.108 12.2119 37.712 12.9279 38.184C14.9239 39.5 18.4159 39.768 20.0119 39.216C20.7479 38.96 21.4679 38.656 22.1719 38.304C21.7719 40.604 20.2759 42.78 18.2839 44.74C13.9479 49.004 7.2239 52.24 3.5599 53.432C3.3639 53.496 3.2519 53.712 3.3159 53.92C3.3759 54.124 3.5879 54.24 3.7839 54.176C7.5199 52.964 14.3759 49.656 18.7959 45.308C21.0799 43.06 22.7079 40.532 22.9839 37.876C28.1439 34.996 32.3839 29.768 36.0079 25.372C36.1439 25.212 36.1239 24.964 35.9679 24.824C35.8119 24.684 35.5759 24.7 35.4399 24.864C31.9639 29.084 27.9279 34.1 23.0239 36.968ZM22.2719 37.384C22.2999 36.744 22.2399 36.092 22.0759 35.436C21.6399 33.676 19.6479 32.636 17.5839 32.372C16.3199 32.208 15.0199 32.344 13.9999 32.82C13.3599 33.12 12.8319 33.552 12.5119 34.144C12.0959 34.916 12.0039 35.58 12.1759 36.14C12.3479 36.704 12.7719 37.16 13.3279 37.524C15.1479 38.724 18.3279 38.976 19.7799 38.476C20.6359 38.18 21.4679 37.812 22.2759 37.384H22.2719Z" fill="#F58F00"/>
<path d="M114.5 76.5002C115.826 76.5002 116.9 75.4257 116.9 74.1002C116.9 72.7747 115.826 71.7002 114.5 71.7002C113.175 71.7002 112.1 72.7747 112.1 74.1002C112.1 75.4257 113.175 76.5002 114.5 76.5002Z" fill="#CBD4E1"/>
<path d="M26.4521 96.1641L26.5826 95.6814C26.5449 95.6712 26.5213 95.6551 26.4983 95.6222L26.4984 95.6221L26.4934 95.6153C26.4836 95.6017 26.4684 95.5738 26.4617 95.5324L26.4606 95.5252C26.4604 95.5233 26.4602 95.5206 26.4599 95.5171C26.4589 95.5032 26.4581 95.4841 26.4574 95.4608C26.4561 95.4141 26.4561 95.3647 26.4561 95.3281V95.2604L26.4381 95.1951C26.4082 95.0867 26.3758 94.9799 26.3456 94.8804C26.3414 94.8665 26.3373 94.8528 26.3332 94.8392C26.2991 94.7266 26.268 94.6221 26.241 94.5178C26.0936 93.9182 25.8122 93.509 25.5355 93.1064C25.5081 93.0665 25.4807 93.0267 25.4535 92.9868C25.1084 92.4786 24.7238 92.1466 24.1728 91.8876L24.1323 91.8685L24.0889 91.8569C24.0804 91.8547 24.0673 91.8512 24.0502 91.8468C23.9925 91.8317 23.8904 91.8051 23.7761 91.7733C23.6185 91.7295 23.485 91.6885 23.4332 91.6668L23.4309 91.6659C23.3747 91.6427 23.3386 91.6136 23.3153 91.5893C23.3033 91.5768 23.2943 91.565 23.288 91.5556C23.2849 91.5509 23.2825 91.547 23.2809 91.5441C23.2793 91.5412 23.2786 91.5396 23.2786 91.5397L23.2787 91.5397L23.2757 91.5335C23.2619 91.5044 23.2558 91.4798 23.2531 91.4582C23.2503 91.4363 23.2502 91.4121 23.2532 91.3822C23.2596 91.3289 23.2781 91.2925 23.3204 91.254L23.3205 91.2541L23.3285 91.2466C23.3384 91.2372 23.3788 91.2061 23.4593 91.1884L23.3521 90.7001L23.459 91.1885L23.4589 91.1885C23.4589 91.1885 23.4606 91.1881 23.4644 91.1875L23.4807 91.1849C23.4947 91.1829 23.5122 91.1807 23.5329 91.1784C23.5746 91.1739 23.623 91.1698 23.6717 91.1663C23.7201 91.1628 23.7663 91.1602 23.8027 91.1584C23.8348 91.1568 23.8529 91.1563 23.8584 91.1561C23.8599 91.1561 23.8605 91.1561 23.8601 91.1561V90.6775L24.0272 91.1244C24.474 90.9574 24.9956 90.7192 25.4135 90.3447C25.9425 89.872 26.1403 89.2754 26.2598 88.7462L26.2599 88.7458C26.3246 88.4584 26.3733 88.1629 26.4193 87.8832C26.4274 87.8343 26.4353 87.786 26.4433 87.7383C26.4981 87.4094 26.5536 87.1016 26.6342 86.8086L26.6342 86.8086L26.6352 86.8049C26.6494 86.7517 26.6648 86.7328 26.6661 86.7311L26.6662 86.7311C26.6675 86.7294 26.6684 86.7286 26.6693 86.7278C26.6711 86.7263 26.6729 86.7248 26.6867 86.7149L26.6868 86.715L26.6923 86.7109C26.713 86.6956 26.7251 86.6919 26.7288 86.6909C26.7329 86.6898 26.7387 86.6889 26.7494 86.6899L26.7494 86.6899L26.7568 86.6905C26.787 86.6929 26.8001 86.6985 26.8054 86.7014C26.8076 86.7027 26.8116 86.7053 26.8175 86.7115C26.8235 86.7179 26.8351 86.7321 26.8489 86.7597C26.8525 86.7669 26.856 86.7745 26.8596 86.7843C26.8623 86.7915 26.8657 86.8015 26.8694 86.8149C26.8698 86.8187 26.8704 86.8237 26.871 86.8304C26.8729 86.8494 26.8748 86.8709 26.8771 86.8971C26.8775 86.9024 26.878 86.9079 26.8785 86.9135C26.8812 86.945 26.8846 86.9821 26.8884 87.0173C26.8916 87.0463 26.8966 87.0869 26.9044 87.1271C26.9348 87.3061 26.9616 87.486 26.9892 87.6716C26.9984 87.7369 27.0072 87.8024 27.016 87.8683C27.0881 88.4053 27.163 88.9628 27.4448 89.5513C27.8295 90.3617 28.2698 90.9832 28.9553 91.2694C29.5937 91.5363 30.3128 91.4685 31.0792 91.3005L31.0927 91.2975L31.1059 91.2938C31.1405 91.2842 31.1656 91.279 31.2032 91.2712C31.2235 91.267 31.2474 91.2621 31.2785 91.2553C31.3158 91.2513 31.3837 91.2768 31.4005 91.3675C31.4195 91.4692 31.3544 91.534 31.3072 91.545L31.3056 91.5453C31.2351 91.5619 31.1787 91.5751 31.128 91.5846L31.1108 91.5878L31.0939 91.5922C30.5033 91.7463 29.9 92.0863 29.3693 92.4768C28.8342 92.8706 28.3422 93.3384 27.9752 93.7809L27.9745 93.7818C27.8369 93.9485 27.6878 94.228 27.562 94.4639C27.556 94.4752 27.55 94.4865 27.544 94.4976C27.3983 94.7706 27.2577 95.0333 27.1214 95.2308C26.9229 95.5146 26.7388 95.6446 26.6542 95.6777C26.6317 95.6852 26.6191 95.686 26.6135 95.6861C26.6071 95.6862 26.5981 95.6856 26.5821 95.6812L26.4521 96.1641ZM26.4521 96.1641C26.5561 96.1921 26.6761 96.2001 26.8241 96.1481L25.9681 95.6121C25.9881 95.7361 26.0361 95.8361 26.0881 95.9081C26.1801 96.0401 26.3041 96.1241 26.4521 96.1641ZM27.1741 89.5425L27.04 89.2521H26.7201H26.7161H26.3782L26.2522 89.5656C26.0977 89.9501 25.8759 90.2912 25.5404 90.5899C25.3346 90.7716 25.0917 90.9346 24.83 91.0764L24.118 91.462L24.7817 91.9259C25.0957 92.1454 25.3586 92.4184 25.6182 92.8005C25.9978 93.3618 26.2532 93.7457 26.4123 94.2886L26.7467 95.4302L27.3283 94.3925C27.3667 94.3239 27.4033 94.2579 27.4385 94.1945C27.5008 94.0822 27.5588 93.9777 27.6152 93.8799C27.7048 93.7247 27.7689 93.6248 27.8109 93.573C28.1291 93.1885 28.5498 92.7818 29.0202 92.4139L29.6431 91.9266L28.9357 91.5728L28.9117 91.5608L28.8962 91.5531L28.8802 91.5464C28.2954 91.303 27.7582 90.7823 27.2451 89.7003C27.2351 89.6787 27.2249 89.6557 27.213 89.629L27.2124 89.6275C27.2008 89.6015 27.1876 89.5718 27.1741 89.5425Z" fill="#CBD4E1" stroke="#CBD4E1"/>
</g>
</g>
<defs>
<linearGradient id="paint0_linear_1540_16419" x1="79.8" y1="55.0005" x2="79.8" y2="98.2005" gradientUnits="userSpaceOnUse">
<stop stop-color="#F58F00"/>
<stop offset="1" stop-color="#FF850B"/>
</linearGradient>
<clipPath id="clip0_1540_16419">
<rect width="120" height="120" fill="white" transform="translate(0.5 0.5)"/>
</clipPath>
</defs>
</svg>
