<svg width="81" height="80" viewBox="0 0 81 80" fill="none" xmlns="http://www.w3.org/2000/svg">
<mask id="mask0_1540_14747" style="mask-type:luminance" maskUnits="userSpaceOnUse" x="0" y="0" width="81" height="80">
<path d="M80.5 0H0.5V80H80.5V0Z" fill="white"/>
</mask>
<g mask="url(#mask0_1540_14747)">
<path d="M40.5 71.7334C58.172 71.7334 72.5 57.4054 72.5 39.7334C72.5 22.0614 58.172 7.7334 40.5 7.7334C22.828 7.7334 8.5 22.0614 8.5 39.7334C8.5 57.4054 22.828 71.7334 40.5 71.7334Z" fill="#F1F4F9"/>
<path d="M53.1774 16.9495H28.5001C26.1436 16.9495 24.2334 18.8597 24.2334 21.2161V54.0241C24.2334 56.3805 26.1436 58.2908 28.5001 58.2908H53.1774C55.5338 58.2908 57.4441 56.3805 57.4441 54.0241V21.2161C57.4441 18.8597 55.5338 16.9495 53.1774 16.9495Z" fill="#F6F8FC"/>
<path d="M39.1932 22.2827H28.4732C27.7515 22.2827 27.1665 22.8677 27.1665 23.5894C27.1665 24.311 27.7515 24.896 28.4732 24.896H39.1932C39.9148 24.896 40.4998 24.311 40.4998 23.5894C40.4998 22.8677 39.9148 22.2827 39.1932 22.2827Z" fill="#F58F00"/>
<path d="M52.5265 29.696H28.4732C27.7515 29.696 27.1665 30.2811 27.1665 31.0027C27.1665 31.7244 27.7515 32.3094 28.4732 32.3094H52.5265C53.2482 32.3094 53.8332 31.7244 53.8332 31.0027C53.8332 30.2811 53.2482 29.696 52.5265 29.696Z" fill="#94A3B8"/>
<path d="M52.5265 37.1094H28.4732C27.7515 37.1094 27.1665 37.6944 27.1665 38.416C27.1665 39.1377 27.7515 39.7227 28.4732 39.7227H52.5265C53.2482 39.7227 53.8332 39.1377 53.8332 38.416C53.8332 37.6944 53.2482 37.1094 52.5265 37.1094Z" fill="#94A3B8"/>
<path d="M52.5265 44.5227H28.4732C27.7515 44.5227 27.1665 45.1077 27.1665 45.8294C27.1665 46.551 27.7515 47.136 28.4732 47.136H52.5265C53.2482 47.136 53.8332 46.551 53.8332 45.8294C53.8332 45.1077 53.2482 44.5227 52.5265 44.5227Z" fill="#94A3B8"/>
<path d="M28.4732 51.936H52.5265C53.2492 51.936 53.8332 52.52 53.8332 53.2427C53.8332 53.9654 53.2492 54.5494 52.5265 54.5494H28.4732C27.7505 54.5494 27.1665 53.9654 27.1665 53.2427C27.1665 52.52 27.7505 51.936 28.4732 51.936Z" fill="#94A3B8"/>
<path d="M77.3401 12.3787H61.3188C60.5721 12.3787 59.9668 13.016 59.9668 13.8V21.7253C59.9668 22.512 60.5721 23.1493 61.3188 23.1493H77.3401C78.0868 23.1493 78.6921 22.512 78.6921 21.7253V13.8C78.6921 13.0133 78.0868 12.3787 77.3401 12.3787Z" fill="white"/>
<path d="M65.0667 17.8668C65.0667 18.4734 64.5732 18.9668 63.9667 18.9668C63.3602 18.9668 62.8667 18.4734 62.8667 17.8668C62.8667 17.2603 63.3602 16.7668 63.9667 16.7668C64.5732 16.7668 65.0667 17.2603 65.0667 17.8668Z" fill="#CBD4E1" stroke="#CBD4E1"/>
<path d="M69.2997 16.2668H74.633C75.5157 16.2668 76.233 16.9842 76.233 17.8668C76.233 18.7495 75.5157 19.4668 74.633 19.4668H69.2997C68.417 19.4668 67.6997 18.7495 67.6997 17.8668C67.6997 16.9842 68.417 16.2668 69.2997 16.2668Z" fill="#94A3B8"/>
<path d="M51.497 65.8309H51.2028C42.4106 65.6726 35.333 58.4969 35.333 49.6669C35.333 40.7377 42.5705 33.5002 51.4997 33.5002C60.4289 33.5002 67.6663 40.7377 67.6663 49.6669C67.6663 53.1516 66.562 56.379 64.6867 59.0201L64.4408 59.3664L64.7427 59.6651L68.8046 63.6827L65.4764 67.2883L61.1214 63.1498L60.8312 62.874L60.4986 63.0969C57.9248 64.8223 54.8292 65.8309 51.497 65.8309ZM51.6037 64.2736C59.6718 64.2736 66.213 57.7324 66.213 49.6642C66.213 41.5961 59.6718 35.0549 51.6037 35.0549C43.5355 35.0549 36.9943 41.5961 36.9943 49.6642C36.9943 57.7324 43.5355 64.2736 51.6037 64.2736Z" fill="#CBD4E1" stroke="#CBD4E1"/>
<path opacity="0.1" d="M51.5 63.667C59.2321 63.667 65.5 57.3981 65.5 49.667C65.5 41.9359 59.2321 35.667 51.5 35.667C43.7679 35.667 37.5 41.9359 37.5 49.667C37.5 57.3981 43.7679 63.667 51.5 63.667Z" fill="#F58F00"/>
<path d="M54.1131 49.6482L57.6304 46.1442C57.9611 45.7976 58.1398 45.3362 58.1344 44.8589C58.1291 44.3816 57.9344 43.9282 57.5958 43.5896C57.2571 43.2536 56.7984 43.0589 56.3184 43.0536C55.8384 43.0482 55.3744 43.2269 55.0251 43.5549L51.4998 47.0589L47.9824 43.5549C47.8144 43.3762 47.6091 43.2349 47.3851 43.1362C47.1585 43.0376 46.9158 42.9842 46.6704 42.9816C46.4251 42.9789 46.1798 43.0242 45.9504 43.1149C45.7211 43.2082 45.5158 43.3442 45.3398 43.5176C45.1665 43.6909 45.0278 43.8962 44.9344 44.1229C44.8411 44.3496 44.7958 44.5922 44.7985 44.8376C44.8011 45.0829 44.8545 45.3229 44.9531 45.5496C45.0518 45.7736 45.1958 45.9762 45.3744 46.1442L48.8971 49.6482L45.3744 53.1522C45.1958 53.3202 45.0518 53.5229 44.9531 53.7469C44.8545 53.9709 44.8011 54.2136 44.7985 54.4589C44.7958 54.7042 44.8411 54.9469 44.9344 55.1736C45.0278 55.4002 45.1638 55.6056 45.3398 55.7789C45.5131 55.9522 45.7211 56.0882 45.9504 56.1816C46.1798 56.2749 46.4224 56.3202 46.6704 56.3149C46.9184 56.3096 47.1611 56.2589 47.3851 56.1602C47.6118 56.0616 47.8144 55.9202 47.9824 55.7416L51.5078 52.2376L55.0331 55.7416C55.3851 56.0482 55.8411 56.2136 56.3104 56.1976C56.7798 56.1816 57.2251 55.9896 57.5558 55.6616C57.8864 55.3309 58.0784 54.8882 58.0918 54.4216C58.1051 53.9549 57.9398 53.5016 57.6278 53.1522L54.1104 49.6482H54.1131Z" fill="#F58F00"/>
<path d="M65.5 68.0003L69.5 63.667L70.028 64.2323C70.604 64.7817 70.948 65.547 70.9854 66.3657C71.0227 67.1817 70.7507 67.9817 70.2307 68.587C69.708 69.1923 68.98 69.555 68.204 69.595C67.428 69.635 66.74 69.2163 66.1667 68.667L65.8333 68.3337L65.5 68.0003Z" fill="#F6F8FC"/>
<path fill-rule="evenodd" clip-rule="evenodd" d="M15.5159 24.3121C15.5106 23.9308 15.4626 23.5495 15.3693 23.1628C15.0333 21.8081 13.5426 20.9388 11.9533 20.7335C10.3639 20.5281 8.71327 20.9948 8.07593 22.1735C7.7106 22.8481 7.6626 23.4295 7.80927 23.9175C7.9586 24.4055 8.30793 24.8081 8.78527 25.1228C10.1159 26.0001 12.4439 26.1788 13.5079 25.8108C13.9986 25.6401 14.4786 25.4375 14.9479 25.2028C14.6813 26.7361 13.6839 28.1868 12.3559 29.4935C9.46527 32.3361 4.9826 34.4935 2.53994 35.2881C2.40927 35.3308 2.3346 35.4748 2.37727 35.6135C2.41727 35.7495 2.5586 35.8268 2.68927 35.7841C5.17993 34.9761 9.7506 32.7708 12.6973 29.8721C14.2199 28.3735 15.3053 26.6881 15.4893 24.9175C18.9293 22.9975 21.7559 19.5121 24.1719 16.5815C24.2626 16.4748 24.2493 16.3095 24.1453 16.2161C24.0413 16.1228 23.8839 16.1335 23.7933 16.2428C21.4759 19.0561 18.7853 22.4001 15.5159 24.3121ZM15.0146 24.5895C15.0333 24.1628 14.9933 23.7281 14.8839 23.2908C14.5933 22.1175 13.2653 21.4241 11.8893 21.2481C11.0466 21.1388 10.1799 21.2295 9.49993 21.5468C9.07327 21.7468 8.72127 22.0348 8.50793 22.4295C8.2306 22.9441 8.16927 23.3868 8.28393 23.7601C8.3986 24.1361 8.68127 24.4401 9.05193 24.6828C10.2653 25.4828 12.3853 25.6508 13.3533 25.3175C13.9239 25.1201 14.4786 24.8748 15.0173 24.5895H15.0146Z" fill="#F58F00"/>
<path d="M76.4999 50.6668C77.3836 50.6668 78.0999 49.9505 78.0999 49.0668C78.0999 48.1831 77.3836 47.4668 76.4999 47.4668C75.6162 47.4668 74.8999 48.1831 74.8999 49.0668C74.8999 49.9505 75.6162 50.6668 76.4999 50.6668Z" fill="#CBD4E1"/>
<path d="M15.9514 60.611C15.9232 60.613 15.8962 60.6154 15.8733 60.6179C15.8605 60.6193 15.8518 60.6204 15.8464 60.6212C15.8478 60.6218 15.8492 60.6224 15.8508 60.6231L15.9514 60.611ZM15.9514 60.611L15.9287 60.6233L15.994 60.6689C15.9701 60.662 15.9472 60.6552 15.926 60.6486C15.9057 60.6423 15.8886 60.6367 15.8749 60.632L15.8588 60.6263L15.9514 60.611ZM16.206 60.473L16.6406 60.2376C16.8063 60.1479 16.9572 60.0462 17.083 59.9352C17.0943 59.9251 17.1053 59.915 17.1162 59.9048L16.206 60.473ZM16.206 60.473L16.0734 60.1182V60.5449L16.206 60.473ZM20.2714 60.7941C20.2254 60.8176 20.1797 60.8421 20.1344 60.8675L19.9902 60.7953C20.0831 60.8005 20.177 60.7997 20.2714 60.7941ZM18.0121 58.2673C18.0427 58.4967 18.0757 58.7433 18.1486 59.0013H17.9801H17.9774H17.8033C17.8152 58.9558 17.8259 58.9111 17.8358 58.8674L17.8359 58.867C17.8801 58.6703 17.9135 58.4678 17.9442 58.2815C17.9495 58.2492 17.9547 58.2174 17.9599 58.1862C17.9673 58.1417 17.9747 58.0982 17.9822 58.0555C17.9863 58.0828 17.9904 58.1103 17.9945 58.1381C18.0005 58.1805 18.0062 58.2236 18.0121 58.2673Z" fill="#CBD4E1" stroke="#CBD4E1"/>
</g>
</svg>
