<svg width="40" height="40" viewBox="0 0 40 40" fill="none" xmlns="http://www.w3.org/2000/svg">
<rect width="40" height="40" rx="6" fill="url(#paint0_linear_1736_22365)"/>
<g clip-path="url(#clip0_1736_22365)">
<path d="M20.6792 16.6416H29.8848C29.8848 16.7456 29.8848 16.8368 29.8848 16.9285C29.8848 18.5145 29.88 20.0999 29.8902 21.6859C29.8915 21.8872 29.8205 21.9497 29.5499 21.9456C28.7395 21.9323 27.9291 21.9415 27.118 21.9405C27.0192 21.9405 26.9211 21.9313 26.7872 21.9241V18.9898H23.7714V28.1267C24.0907 27.8168 24.3809 27.5545 24.6407 27.2758C24.8051 27.0991 24.987 27.0279 25.282 27.032C26.34 27.0473 27.3987 27.0376 28.4567 27.0381C28.5433 27.0381 28.6306 27.0438 28.7977 27.0499C26.0809 29.7106 23.402 32.3334 20.6792 34.9998V16.6416Z" fill="white"/>
<path d="M16.2308 24.3137H10.1109V21.9729H16.2112V18.9912H13.2013V20.7316H10.1089V16.6416H19.3199V34.9998C19.2413 34.9372 19.1803 34.8967 19.1316 34.849C18.2265 33.9654 17.3167 33.0838 16.4246 32.1926C16.3135 32.0817 16.2389 31.9186 16.2383 31.7795C16.2274 29.3966 16.2308 27.0132 16.2308 24.6298C16.2308 24.5369 16.2308 24.4445 16.2308 24.3137Z" fill="white"/>
<path d="M30.1246 10.7228C29.9235 10.4655 29.7899 10.2063 29.9829 9.91568C30.1462 9.67047 30.3965 9.58362 30.6853 9.61435C31.0146 9.64909 31.2636 9.93639 31.2494 10.2531C31.2353 10.5651 30.9883 10.8344 30.6549 10.8083C30.3405 10.7842 30.1651 10.9205 29.9788 11.1337C28.9586 12.3009 28.0881 13.5623 27.4666 14.9828C27.3863 15.1658 27.2885 15.224 27.0894 15.224C22.3721 15.2179 17.6554 15.2179 12.9381 15.224C12.7323 15.224 12.6466 15.1451 12.5676 14.9714C11.9192 13.5409 11.0507 12.2515 10.0021 11.0769C9.84289 10.8992 9.69444 10.7996 9.436 10.8163C9.07905 10.839 8.7781 10.5644 8.75178 10.2584C8.72817 9.97982 8.94139 9.71925 9.25854 9.63907C9.61279 9.54887 10.0015 9.70923 10.0959 10.0172C10.1378 10.1535 10.1519 10.3613 10.0764 10.4569C9.89148 10.6887 9.98864 10.8283 10.1519 10.9907C10.7073 11.5439 11.2653 12.0924 12.0076 12.4051C13.0339 12.8381 13.7681 12.3978 13.8733 11.2994C13.9617 10.3753 13.7991 9.48407 13.5548 8.59946C13.5062 8.42308 13.4165 8.35159 13.2262 8.34357C12.9138 8.33021 12.6284 8.234 12.463 7.93668C12.2613 7.57456 12.3625 7.17969 12.7174 6.94518C13.1209 6.6786 13.6945 6.73472 13.9799 7.06878C14.2782 7.41755 14.2579 7.77633 13.9192 8.10438C13.8558 8.16585 13.789 8.22331 13.6999 8.30348C13.8004 8.46718 13.8888 8.63153 13.9975 8.78186C14.4307 9.37717 14.8369 9.99652 15.3194 10.5497C15.6129 10.8858 15.9975 11.1731 16.3949 11.3849C17.1757 11.8011 18.0266 11.5853 18.4854 10.7809C18.8896 10.0734 19.1581 9.2863 19.4429 8.51795C19.6075 8.07164 19.6851 7.59393 19.8019 7.13092C19.8525 6.92981 19.81 6.81022 19.5772 6.73806C19.2148 6.62514 19.0036 6.35322 18.9847 5.96771C18.9658 5.56683 19.1676 5.28488 19.5252 5.12252C19.866 4.96819 20.2142 4.94347 20.5563 5.14257C20.8707 5.32497 21.0664 5.58353 21.0651 5.949C21.0637 6.31046 20.8424 6.54096 20.534 6.69931C20.4348 6.75008 20.3302 6.79218 20.2175 6.84295C20.2135 6.88237 20.1973 6.92714 20.2061 6.96723C20.4605 8.16451 20.7344 9.35779 21.3451 10.4395C22.0792 11.741 22.7385 11.8953 23.9713 11.0375C24.9113 10.3834 25.6778 9.56491 26.2257 8.55604C26.3155 8.39101 26.3337 8.28077 26.1589 8.13578C25.8128 7.84782 25.7628 7.52177 25.9605 7.19305C26.1738 6.83761 26.634 6.69263 27.0888 6.83694C27.4727 6.95921 27.7136 7.28659 27.6738 7.63335C27.6313 8.00483 27.3175 8.33288 26.8971 8.33756C26.5827 8.34157 26.4828 8.48054 26.4396 8.7371C26.3283 9.40523 26.1738 10.07 26.1211 10.7422C26.0928 11.1023 26.1812 11.4998 26.3209 11.8386C26.5874 12.4846 27.2278 12.7071 27.883 12.4559C28.8034 12.1031 29.4707 11.437 30.1219 10.7234L30.1246 10.7228Z" fill="white"/>
</g>
<defs>
<linearGradient id="paint0_linear_1736_22365" x1="20" y1="0" x2="20" y2="40" gradientUnits="userSpaceOnUse">
<stop stop-color="#FFB855"/>
<stop offset="1" stop-color="#FF850B"/>
</linearGradient>
<clipPath id="clip0_1736_22365">
<rect width="22.5" height="30" fill="white" transform="translate(8.75 5)"/>
</clipPath>
</defs>
</svg>
