<svg width="24" height="25" viewBox="0 0 24 25" fill="none" xmlns="http://www.w3.org/2000/svg">
<rect y="0.5" width="24" height="24" rx="12" fill="#E19C3C" fill-opacity="0.2"/>
<path d="M14.999 5.0833C15.2315 5.40332 15.3639 5.78509 15.3795 6.18035C15.395 6.57561 15.293 6.96659 15.0863 7.30387C14.8796 7.64114 14.5776 7.90955 14.2183 8.07516C13.8591 8.24076 13.4588 8.29613 13.0681 8.23425C12.6774 8.17237 12.3139 7.99602 12.0234 7.72751C11.7329 7.45901 11.5286 7.11039 11.4363 6.72576C11.3439 6.34113 11.3677 5.93775 11.5046 5.56664C11.6415 5.19552 11.8854 4.87334 12.2054 4.64084C12.6346 4.32905 13.17 4.20051 13.6939 4.28349C14.2178 4.36647 14.6873 4.65417 14.999 5.0833Z" fill="#E19C3C"/>
<path d="M15.5448 8.32885C15.534 8.33669 15.5271 8.34992 15.5163 8.35775C15.4702 8.40773 15.4202 8.45231 15.3687 8.5062C15.145 8.70224 14.8941 8.86505 14.624 8.98961C14.5544 9.02035 14.4832 9.04731 14.4107 9.07038C14.2029 9.15513 13.9837 9.20886 13.7602 9.22986C13.6703 9.24237 13.5799 9.25035 13.4892 9.25375C13.1026 9.26413 12.7175 9.20313 12.3531 9.07381C12.2679 9.04255 12.1843 9.00701 12.1027 8.96733C11.8966 8.8783 11.7048 8.75947 11.5333 8.61465C11.4715 8.5703 11.4121 8.52266 11.3554 8.47193C11.137 8.26997 10.9488 8.03763 10.7965 7.78203C10.7642 7.71487 10.7304 7.65701 10.702 7.59524C10.6942 7.58446 10.6917 7.56975 10.6839 7.55896C10.643 7.46897 10.5825 7.38921 10.5069 7.32546C10.4314 7.26171 10.3426 7.21557 10.247 7.19037C10.1513 7.16518 10.0513 7.16157 9.95416 7.1798C9.85699 7.19803 9.76508 7.23764 9.68511 7.29577L6.40589 9.67826C6.33039 9.73312 6.2588 9.79337 6.1926 9.84971C6.1264 9.90604 6.07639 9.95062 6.0195 10.0084C5.96262 10.0662 5.90182 10.1187 5.85033 10.1725C5.29512 10.6618 4.92799 11.3295 4.81222 12.0604C4.69645 12.7914 4.83929 13.5398 5.21613 14.1767C5.24844 14.2439 5.28468 14.3164 5.32631 14.3851C5.36794 14.4537 5.40026 14.5209 5.44189 14.5895C5.48352 14.6582 5.5369 14.743 5.59176 14.8185L8.71094 19.1117C8.7658 19.1872 8.82605 19.2588 8.88239 19.325C8.93872 19.3912 8.9833 19.4412 9.04111 19.4981C9.09892 19.5549 9.15134 19.6158 9.20523 19.6672C9.69453 20.2225 10.3622 20.5896 11.0931 20.7053C11.8241 20.8211 12.5725 20.6783 13.2094 20.3014C13.2766 20.2691 13.3491 20.2329 13.4178 20.1913C13.4864 20.1496 13.5536 20.1173 13.6222 20.0757C13.6908 20.0341 13.7757 19.9807 13.8512 19.9258L18.1444 16.8066C18.2199 16.7518 18.2915 16.6915 18.3577 16.6352C18.4238 16.5788 18.4739 16.5343 18.5307 16.4765C18.5876 16.4186 18.6484 16.3662 18.6999 16.3123C19.2551 15.823 19.6223 15.1554 19.738 14.4245C19.8538 13.6935 19.711 12.9451 19.3341 12.3082C19.3018 12.241 19.2656 12.1684 19.2239 12.0998C19.1823 12.0312 19.15 11.964 19.1084 11.8954C19.0667 11.8267 19.0133 11.7419 18.9585 11.6664L16.576 8.38718C16.5179 8.30718 16.4427 8.24111 16.356 8.19374C16.2692 8.14638 16.1729 8.11891 16.0742 8.11332C15.9755 8.10774 15.8768 8.12418 15.7852 8.16146C15.6936 8.19874 15.6115 8.25591 15.5448 8.32885ZM9.71324 15.1038L12.41 13.1445C12.5172 13.0665 12.6511 13.0344 12.7821 13.0551C12.913 13.0759 13.0304 13.1478 13.1084 13.2551C13.1863 13.3624 13.2184 13.4962 13.1977 13.6272C13.177 13.7582 13.105 13.8756 12.9977 13.9535L10.301 15.9128C10.1937 15.9907 10.0599 16.0229 9.92891 16.0021C9.79794 15.9814 9.68057 15.9094 9.60262 15.8022C9.52468 15.6949 9.49254 15.561 9.51329 15.4301C9.53403 15.2991 9.60596 15.1817 9.71324 15.1038ZM16.7226 14.5434L11.8685 18.0702C11.7612 18.1481 11.6273 18.1802 11.4963 18.1595C11.3654 18.1388 11.248 18.0668 11.17 17.9595C11.0921 17.8523 11.06 17.7184 11.0807 17.5874C11.1015 17.4565 11.1734 17.3391 11.2807 17.2611L16.1348 13.7344C16.2421 13.6565 16.3759 13.6244 16.5069 13.6451C16.6379 13.6658 16.7552 13.7378 16.8332 13.845C16.9111 13.9523 16.9432 14.0862 16.9225 14.2172C16.9018 14.3481 16.8298 14.4655 16.7226 14.5434Z" fill="#E19C3C" fill-opacity="0.8"/>
</svg>
