<svg width="24" height="25" viewBox="0 0 24 25" fill="none" xmlns="http://www.w3.org/2000/svg">
<rect y="0.5" width="24" height="24" rx="12" fill="#48A659" fill-opacity="0.2"/>
<path d="M12 5.83311C11.1697 5.83604 10.3739 6.16521 9.7841 6.74963C9.19433 7.33404 8.85792 8.12687 8.84742 8.95708C8.83692 9.7873 9.15318 10.5884 9.72799 11.1875C10.3028 11.7867 11.0901 12.1358 11.92 12.1598C11.9687 12.1531 12.018 12.1531 12.0667 12.1598H12.1133C12.9467 12.1365 13.7371 11.7853 14.3129 11.1824C14.8887 10.5796 15.2034 9.77385 15.1884 8.94034C15.1735 8.10682 14.8302 7.31288 14.2332 6.73106C13.6362 6.14923 12.8336 5.82654 12 5.83311Z" fill="#48A659"/>
<path d="M15.3866 13.9334C14.3631 13.3247 13.1942 13.0034 12.0033 13.0034C10.8124 13.0034 9.64356 13.3247 8.61997 13.9334C8.23825 14.1536 7.91796 14.4662 7.68849 14.8425C7.45902 15.2187 7.32772 15.6465 7.30664 16.0867C7.32722 16.5245 7.45772 16.95 7.68608 17.324C7.91445 17.698 8.23333 18.0085 8.61331 18.2267C9.62694 18.8623 10.8037 19.189 12 19.1667C13.1962 19.189 14.373 18.8623 15.3866 18.2267C15.7672 18.0058 16.0862 17.6929 16.3145 17.3167C16.5428 16.9405 16.673 16.513 16.6933 16.0734C16.6713 15.636 16.5403 15.2111 16.312 14.8373C16.0838 14.4635 15.7657 14.1528 15.3866 13.9334ZM13.3333 16.5867H12.5V17.4201C12.5 17.5527 12.4473 17.6799 12.3535 17.7736C12.2598 17.8674 12.1326 17.9201 12 17.9201C11.8674 17.9201 11.7402 17.8674 11.6464 17.7736C11.5527 17.6799 11.5 17.5527 11.5 17.4201V16.5867H10.6666C10.534 16.5867 10.4069 16.5341 10.3131 16.4403C10.2193 16.3465 10.1666 16.2193 10.1666 16.0867C10.1666 15.9541 10.2193 15.827 10.3131 15.7332C10.4069 15.6394 10.534 15.5867 10.6666 15.5867H11.5V14.7534C11.5 14.6208 11.5527 14.4936 11.6464 14.3999C11.7402 14.3061 11.8674 14.2534 12 14.2534C12.1326 14.2534 12.2598 14.3061 12.3535 14.3999C12.4473 14.4936 12.5 14.6208 12.5 14.7534V15.5867H13.3333C13.4659 15.5867 13.5931 15.6394 13.6869 15.7332C13.7806 15.827 13.8333 15.9541 13.8333 16.0867C13.8333 16.2193 13.7806 16.3465 13.6869 16.4403C13.5931 16.5341 13.4659 16.5867 13.3333 16.5867Z" fill="#48A659"/>
</svg>
