<svg width="24" height="25" viewBox="0 0 24 25" fill="none" xmlns="http://www.w3.org/2000/svg">
<rect y="0.5" width="24" height="24" rx="12" fill="#FFEBD6"/>
<path d="M11.3333 15.2665V17.0665C11.3333 18.5665 10.7333 19.1665 9.23325 19.1665H7.43325C5.93325 19.1665 5.33325 18.5665 5.33325 17.0665V15.2665C5.33325 13.7665 5.93325 13.1665 7.43325 13.1665H9.23325C10.7333 13.1665 11.3333 13.7665 11.3333 15.2665Z" fill="#F58F00"/>
<path d="M18.6667 8.8335C18.6667 9.42684 18.4908 10.0069 18.1612 10.5002C17.8315 10.9936 17.363 11.3781 16.8148 11.6051C16.2666 11.8322 15.6634 11.8916 15.0815 11.7759C14.4995 11.6601 13.965 11.3744 13.5454 10.9548C13.1259 10.5353 12.8401 10.0007 12.7244 9.41877C12.6086 8.83682 12.668 8.23362 12.8951 7.68545C13.1222 7.13727 13.5067 6.66873 14 6.33909C14.4934 6.00944 15.0734 5.8335 15.6667 5.8335C16.4624 5.8335 17.2255 6.14957 17.7881 6.71218C18.3507 7.27478 18.6667 8.03785 18.6667 8.8335Z" fill="#FFAA33"/>
<path d="M13.8533 19.1669C13.7656 19.166 13.6797 19.1421 13.6041 19.0977C13.5285 19.0532 13.466 18.9897 13.4226 18.9135C13.3794 18.8358 13.3573 18.7482 13.3584 18.6593C13.3596 18.5704 13.384 18.4834 13.4293 18.4069L14.0759 17.3269C14.1096 17.2704 14.1541 17.2211 14.2069 17.1818C14.2596 17.1426 14.3196 17.1141 14.3834 17.098C14.4471 17.0819 14.5134 17.0785 14.5785 17.088C14.6436 17.0976 14.7061 17.1198 14.7626 17.1535C14.8191 17.1872 14.8683 17.2317 14.9076 17.2845C14.9469 17.3372 14.9754 17.3972 14.9915 17.461C15.0076 17.5247 15.0109 17.591 15.0014 17.6561C14.9919 17.7212 14.9696 17.7837 14.9359 17.8402L14.8159 18.0402C15.6337 17.8275 16.3578 17.3495 16.8749 16.6812C17.392 16.0128 17.6727 15.1919 17.6733 14.3469C17.6737 14.2816 17.687 14.2171 17.7123 14.157C17.7377 14.097 17.7747 14.0425 17.8211 13.9966C17.8675 13.9508 17.9225 13.9146 17.9829 13.8901C18.0434 13.8655 18.108 13.8531 18.1733 13.8535C18.2385 13.854 18.303 13.8672 18.3631 13.8926C18.4232 13.918 18.4777 13.9549 18.5235 14.0014C18.5693 14.0478 18.6055 14.1028 18.6301 14.1632C18.6546 14.2236 18.667 14.2883 18.6666 14.3535C18.6648 15.6296 18.1571 16.8528 17.2548 17.7551C16.3526 18.6574 15.1293 19.1651 13.8533 19.1669Z" fill="#F58F00"/>
<path d="M5.83325 11.1468C5.76757 11.1469 5.70251 11.134 5.64181 11.1089C5.5811 11.0839 5.52595 11.047 5.4795 11.0006C5.43306 10.9541 5.39623 10.899 5.37113 10.8383C5.34604 10.7776 5.33316 10.7125 5.33325 10.6468C5.33502 9.3708 5.8427 8.14753 6.74499 7.24524C7.64729 6.34294 8.87055 5.83526 10.1466 5.8335C10.2356 5.83389 10.323 5.85745 10.4001 5.90187C10.4773 5.94629 10.5416 6.01003 10.5866 6.08683C10.6298 6.16452 10.6519 6.25216 10.6507 6.34105C10.6496 6.42994 10.6251 6.51697 10.5799 6.5935L9.93325 7.66683C9.89955 7.7233 9.85505 7.77257 9.8023 7.81185C9.74955 7.85112 9.68958 7.87961 9.62582 7.89571C9.56205 7.9118 9.49575 7.91518 9.43068 7.90565C9.36561 7.89612 9.30305 7.87387 9.24659 7.84016C9.19012 7.80646 9.14084 7.76196 9.10157 7.70921C9.0623 7.65646 9.0338 7.59649 9.01771 7.53273C9.00161 7.46897 8.99823 7.40266 9.00776 7.33759C9.01729 7.27252 9.03955 7.20996 9.07325 7.1535L9.19325 6.9535C8.37565 7.16695 7.65169 7.64503 7.13433 8.31314C6.61696 8.98126 6.33529 9.80182 6.33325 10.6468C6.33334 10.7125 6.32047 10.7776 6.29537 10.8383C6.27027 10.899 6.23345 10.9541 6.187 11.0006C6.14055 11.047 6.0854 11.0839 6.0247 11.1089C5.964 11.134 5.89894 11.1469 5.83325 11.1468Z" fill="#FFAA33"/>
</svg>
