<svg width="28" height="28" viewBox="0 0 28 28" fill="none" xmlns="http://www.w3.org/2000/svg">
<path d="M14.0002 2.33337C11.6927 2.33337 9.43709 3.01761 7.51852 4.29956C5.59994 5.58151 4.1046 7.4036 3.22157 9.5354C2.33855 11.6672 2.10751 14.013 2.55767 16.2761C3.00783 18.5392 4.11898 20.618 5.75059 22.2496C7.3822 23.8812 9.461 24.9924 11.7241 25.4425C13.9872 25.8927 16.333 25.6617 18.4648 24.7786C20.5966 23.8956 22.4187 22.4003 23.7006 20.4817C24.9826 18.5631 25.6668 16.3075 25.6668 14C25.6619 10.9074 24.4311 7.94277 22.2443 5.75591C20.0574 3.56906 17.0928 2.33831 14.0002 2.33337ZM17.9202 16.6834C18.0829 16.848 18.1742 17.0702 18.1742 17.3017C18.1742 17.5332 18.0829 17.7554 17.9202 17.92C17.8391 18.0015 17.7427 18.0661 17.6366 18.1101C17.5305 18.1542 17.4167 18.1769 17.3018 18.1769C17.1869 18.1769 17.0732 18.1542 16.9671 18.1101C16.8609 18.0661 16.7646 18.0015 16.6835 17.92L14.0002 15.2367L11.3168 17.92C11.2358 18.0015 11.1394 18.0661 11.0333 18.1101C10.9272 18.1542 10.8134 18.1769 10.6985 18.1769C10.5836 18.1769 10.4698 18.1542 10.3637 18.1101C10.2576 18.0661 10.1612 18.0015 10.0802 17.92C9.91744 17.7554 9.82618 17.5332 9.82618 17.3017C9.82618 17.0702 9.91744 16.848 10.0802 16.6834L12.7635 14L10.0802 11.3167C9.92561 11.1508 9.84146 10.9314 9.84546 10.7048C9.84946 10.4781 9.94129 10.2618 10.1016 10.1015C10.2619 9.94117 10.4782 9.84934 10.7049 9.84534C10.9316 9.84134 11.151 9.92548 11.3168 10.08L14.0002 12.7634L16.6835 10.08C16.8494 9.92548 17.0688 9.84134 17.2954 9.84534C17.5221 9.84934 17.7384 9.94117 17.8987 10.1015C18.059 10.2618 18.1509 10.4781 18.1549 10.7048C18.1589 10.9314 18.0747 11.1508 17.9202 11.3167L15.2368 14L17.9202 16.6834Z" fill="#E14C3C"/>
</svg>
