<svg width="20" height="20" viewBox="0 0 20 20" fill="none" xmlns="http://www.w3.org/2000/svg">
<mask id="path-1-inside-1_1604_27622" fill="white">
<path fill-rule="evenodd" clip-rule="evenodd" d="M18.5411 10.3054C18.8499 9.56417 17.9854 8.9597 17.1833 8.99588C17.1225 8.99862 17.0614 9 17 9C14.7909 9 13 7.20914 13 5C13 4.31174 13.1738 3.66408 13.48 3.09853C13.7282 2.63992 13.5215 2 13 2C9.68629 2 7 4.68629 7 8C7 11.3137 9.68629 14 13 14C15.4968 14 17.6375 12.4749 18.5411 10.3054Z"/>
</mask>
<path d="M13.48 3.09853L12.1609 2.38445L13.48 3.09853ZM18.5411 10.3054L17.1564 9.72862L18.5411 10.3054ZM17.1157 7.4974C17.0774 7.49912 17.0389 7.5 17 7.5V10.5C17.084 10.5 17.1676 10.4981 17.2508 10.4944L17.1157 7.4974ZM17 7.5C15.6193 7.5 14.5 6.38071 14.5 5H11.5C11.5 8.03757 13.9624 10.5 17 10.5V7.5ZM14.5 5C14.5 4.56723 14.6087 4.16433 14.7991 3.81261L12.1609 2.38445C11.7389 3.16384 11.5 4.05625 11.5 5H14.5ZM8.5 8C8.5 5.51472 10.5147 3.5 13 3.5V0.5C8.85786 0.5 5.5 3.85786 5.5 8H8.5ZM13 12.5C10.5147 12.5 8.5 10.4853 8.5 8H5.5C5.5 12.1421 8.85786 15.5 13 15.5V12.5ZM17.1564 9.72862C16.4775 11.3586 14.8703 12.5 13 12.5V15.5C16.1234 15.5 18.7975 13.5911 19.9258 10.8821L17.1564 9.72862ZM14.7991 3.81261C15.135 3.19205 15.1718 2.45419 14.9237 1.8262C14.6578 1.15284 13.9929 0.5 13 0.5V3.5C12.8067 3.5 12.5992 3.43516 12.4254 3.30372C12.2627 3.18079 12.1761 3.03605 12.1335 2.92837C12.0572 2.735 12.0732 2.5464 12.1609 2.38445L14.7991 3.81261ZM17.2508 10.4944C17.2558 10.4941 17.2764 10.4952 17.3018 10.5037C17.3289 10.5127 17.3259 10.5181 17.2999 10.4957C17.2749 10.4741 17.1911 10.3928 17.1404 10.2309C17.0829 10.0469 17.1013 9.86102 17.1564 9.72862L19.9258 10.8821C20.3934 9.75963 19.8884 8.76574 19.2576 8.22253C18.6731 7.71912 17.8762 7.46311 17.1157 7.4974L17.2508 10.4944Z" fill="#27364B" mask="url(#path-1-inside-1_1604_27622)"/>
<mask id="path-3-inside-2_1604_27622" fill="white">
<path fill-rule="evenodd" clip-rule="evenodd" d="M8.51291 4.0166C4.87416 4.2667 2 7.29766 2 10.9999C2 14.8659 5.13401 17.9999 9 17.9999C12.014 17.9999 14.583 16.0951 15.569 13.4237C14.971 13.7074 14.3187 13.8952 13.6318 13.9671C12.6538 15.4905 10.9448 16.4999 9 16.4999C5.96243 16.4999 3.5 14.0375 3.5 10.9999C3.5 8.50149 5.16589 6.39216 7.44748 5.72209C7.70589 5.09286 8.06814 4.51726 8.51291 4.0166Z"/>
</mask>
<path d="M8.51291 4.0166L9.63431 5.01283L12.0724 2.26841L8.41006 2.52013L8.51291 4.0166ZM15.569 13.4237L16.9762 13.9431L18.2503 10.4911L14.926 12.0685L15.569 13.4237ZM13.6318 13.9671L13.4757 12.4752L12.7588 12.5502L12.3695 13.1567L13.6318 13.9671ZM7.44748 5.72209L7.87016 7.16131L8.56137 6.95831L8.83504 6.29192L7.44748 5.72209ZM8.41006 2.52013C3.9901 2.82393 0.5 6.5037 0.5 10.9999H3.5C3.5 8.09162 5.75821 5.70948 8.61577 5.51307L8.41006 2.52013ZM0.5 10.9999C0.5 15.6943 4.30558 19.4999 9 19.4999V16.4999C5.96243 16.4999 3.5 14.0375 3.5 10.9999H0.5ZM9 19.4999C12.6622 19.4999 15.7798 17.1847 16.9762 13.9431L14.1618 12.9043C13.3863 15.0055 11.3657 16.4999 9 16.4999V19.4999ZM14.926 12.0685C14.4786 12.2808 13.9906 12.4213 13.4757 12.4752L13.7879 15.4589C14.6467 15.369 15.4635 15.134 16.2121 14.7788L14.926 12.0685ZM9 17.9999C11.4768 17.9999 13.6519 16.7125 14.8941 14.7774L12.3695 13.1567C11.6558 14.2686 10.4128 14.9999 9 14.9999V17.9999ZM2 10.9999C2 14.8659 5.13401 17.9999 9 17.9999V14.9999C6.79086 14.9999 5 13.2091 5 10.9999H2ZM7.02481 4.28287C4.12195 5.1354 2 7.8179 2 10.9999H5C5 9.18509 6.20983 7.64892 7.87016 7.16131L7.02481 4.28287ZM8.83504 6.29192C9.02841 5.82105 9.29997 5.38918 9.63431 5.01283L7.39151 3.02038C6.83631 3.64534 6.38337 4.36468 6.05993 5.15226L8.83504 6.29192Z" fill="#27364B" mask="url(#path-3-inside-2_1604_27622)"/>
</svg>
