<svg width="20" height="20" viewBox="0 0 20 20" fill="none" xmlns="http://www.w3.org/2000/svg">
<path d="M14.1585 7.4668H5.8418" stroke="#27364B" stroke-width="1.5" stroke-linecap="round" stroke-linejoin="round"/>
<path d="M10 6.06689V7.46689" stroke="#27364B" stroke-width="1.5" stroke-linecap="round" stroke-linejoin="round"/>
<path d="M12.0835 7.4502C12.1141 9.13863 11.4728 10.7701 10.3008 11.9859C9.12879 13.2016 7.52192 13.9022 5.8335 13.9335" stroke="#27364B" stroke-width="1.5" stroke-linecap="round" stroke-linejoin="round"/>
<path d="M14.1667 13.9333C13.4179 13.9098 12.685 13.7114 12.0266 13.354C11.3683 12.9966 10.8026 12.4901 10.375 11.875" stroke="#27364B" stroke-width="1.5" stroke-linecap="round" stroke-linejoin="round"/>
<path d="M7.49984 18.3332H12.4998C16.6665 18.3332 18.3332 16.6665 18.3332 12.4998V7.49984C18.3332 3.33317 16.6665 1.6665 12.4998 1.6665H7.49984C3.33317 1.6665 1.6665 3.33317 1.6665 7.49984V12.4998C1.6665 16.6665 3.33317 18.3332 7.49984 18.3332Z" stroke="#27364B" stroke-width="1.5" stroke-linecap="round" stroke-linejoin="round"/>
</svg>
