<svg width="20" height="20" viewBox="0 0 20 20" fill="none" xmlns="http://www.w3.org/2000/svg">
<path d="M9.1665 13.4585V15.7085C9.1665 17.5835 8.4165 18.3335 6.5415 18.3335H4.2915C2.4165 18.3335 1.6665 17.5835 1.6665 15.7085V13.4585C1.6665 11.5835 2.4165 10.8335 4.2915 10.8335H6.5415C8.4165 10.8335 9.1665 11.5835 9.1665 13.4585Z" stroke="#27364B" stroke-width="1.5" stroke-linecap="round" stroke-linejoin="round"/>
<path d="M18.3333 12.5C18.3333 14.0471 17.7188 15.5308 16.6248 16.6248C15.5308 17.7188 14.0471 18.3333 12.5 18.3333L13.375 16.875" stroke="#27364B" stroke-width="1.5" stroke-linecap="round" stroke-linejoin="round"/>
<path d="M1.6665 7.49984C1.6665 5.95274 2.28109 4.46901 3.37505 3.37505C4.46901 2.28109 5.95274 1.6665 7.49984 1.6665L6.62484 3.12484" stroke="#27364B" stroke-width="1.5" stroke-linecap="round" stroke-linejoin="round"/>
<path d="M18.3335 5.4165C18.3335 6.15818 18.1136 6.88321 17.7015 7.49989C17.2895 8.11658 16.7038 8.59722 16.0186 8.88105C15.3333 9.16488 14.5793 9.23914 13.8519 9.09445C13.1245 8.94975 12.4563 8.5926 11.9318 8.06815C11.4074 7.54371 11.0502 6.87552 10.9056 6.14809C10.7609 5.42066 10.8351 4.66666 11.1189 3.98144C11.4028 3.29622 11.8834 2.71055 12.5001 2.29849C13.1168 1.88644 13.8418 1.6665 14.5835 1.6665C15.5781 1.6665 16.5319 2.06159 17.2351 2.76485C17.9384 3.46811 18.3335 4.42194 18.3335 5.4165V5.4165Z" stroke="#27364B" stroke-width="1.5" stroke-linecap="round" stroke-linejoin="round"/>
</svg>
