<svg width="25" height="24" viewBox="0 0 25 24" fill="none" xmlns="http://www.w3.org/2000/svg">
<path d="M18.48 10.7902V14.7902C18.4822 15.0408 18.4688 15.2913 18.44 15.5402C18.21 18.2402 16.62 19.5802 13.69 19.5802H13.29C13.1659 19.5806 13.0435 19.6097 12.9325 19.6652C12.8215 19.7207 12.7248 19.8012 12.65 19.9002L11.45 21.5002C11.3483 21.6631 11.2068 21.7973 11.0388 21.8904C10.8709 21.9835 10.682 22.0324 10.49 22.0324C10.298 22.0324 10.1091 21.9835 9.94119 21.8904C9.77325 21.7973 9.63175 21.6631 9.53 21.5002L8.33 19.9002C8.24995 19.807 8.15212 19.7307 8.04223 19.6758C7.93234 19.6208 7.81259 19.5883 7.69 19.5802H7.29C4.1 19.5802 2.5 18.7902 2.5 14.7902V10.7902C2.5 7.86023 3.85 6.27023 6.54 6.04023C6.78893 6.01141 7.03941 5.99805 7.29 6.00023H13.69C16.88 6.00023 18.4767 7.59689 18.48 10.7902Z" stroke="#0F1A2A" stroke-width="1.5" stroke-linecap="round" stroke-linejoin="round"/>
<path d="M22.48 6.79V10.79C22.48 13.73 21.1334 15.3133 18.44 15.54C18.4689 15.2911 18.4822 15.0406 18.48 14.79V10.79C18.48 7.6 16.8834 6.00333 13.69 6H7.29004C7.03945 5.99783 6.78897 6.01119 6.54004 6.04C6.77004 3.35 8.36004 2 11.29 2H17.69C20.88 2 22.4767 3.59667 22.48 6.79Z" stroke="#0F1A2A" stroke-width="1.5" stroke-linecap="round" stroke-linejoin="round"/>
</svg>
