<svg width="28" height="28" viewBox="0 0 28 28" fill="none" xmlns="http://www.w3.org/2000/svg">
<path d="M14.0002 2.33337C11.6927 2.33337 9.43709 3.01761 7.51852 4.29956C5.59994 5.58151 4.1046 7.4036 3.22157 9.5354C2.33855 11.6672 2.10751 14.013 2.55767 16.2761C3.00783 18.5392 4.11898 20.618 5.75059 22.2496C7.3822 23.8812 9.461 24.9924 11.7241 25.4425C13.9872 25.8927 16.333 25.6617 18.4648 24.7786C20.5966 23.8956 22.4187 22.4003 23.7006 20.4817C24.9826 18.5631 25.6668 16.3075 25.6668 14C25.6619 10.9074 24.4311 7.94277 22.2443 5.75591C20.0574 3.56906 17.0928 2.33831 14.0002 2.33337ZM18.5735 14.875H9.24017C9.0081 14.875 8.78554 14.7829 8.62145 14.6188C8.45735 14.4547 8.36517 14.2321 8.36517 14C8.36517 13.768 8.45735 13.5454 8.62145 13.3813C8.78554 13.2172 9.0081 13.125 9.24017 13.125H18.5735C18.8056 13.125 19.0281 13.2172 19.1922 13.3813C19.3563 13.5454 19.4485 13.768 19.4485 14C19.4485 14.2321 19.3563 14.4547 19.1922 14.6188C19.0281 14.7829 18.8056 14.875 18.5735 14.875Z" fill="#64748B"/>
</svg>
