<svg width="25" height="24" viewBox="0 0 25 24" fill="none" xmlns="http://www.w3.org/2000/svg">
<path d="M12.25 6.44043V9.77043" stroke="#0F1A2A" stroke-width="1.5" stroke-linecap="round"/>
<path d="M12.2698 2C11.3951 1.99974 10.529 2.17182 9.72081 2.50643C8.91266 2.84103 8.17836 3.33159 7.55987 3.95008C6.94138 4.56857 6.45082 5.30287 6.11622 6.11102C5.78161 6.91916 5.60953 7.78532 5.60979 8.66V10.76C5.57802 11.5584 5.36242 12.3386 4.97979 13.04L3.70979 15.16C3.52009 15.4405 3.39991 15.7621 3.35921 16.0982C3.31851 16.4343 3.35845 16.7753 3.47573 17.093C3.59301 17.4106 3.78425 17.6957 4.03363 17.9248C4.28301 18.1538 4.58335 18.3201 4.90979 18.41C9.69107 20 14.8585 20 19.6398 18.41C19.9553 18.3048 20.2431 18.13 20.482 17.8986C20.7208 17.6672 20.9047 17.385 21.0199 17.073C21.1351 16.761 21.1787 16.4271 21.1475 16.096C21.1164 15.7649 21.0112 15.445 20.8398 15.16L19.5698 13.04C19.1884 12.3381 18.9729 11.5581 18.9398 10.76V8.66C18.9293 6.89517 18.2228 5.20577 16.974 3.95877C15.7251 2.71176 14.0346 2.00787 12.2698 2V2Z" stroke="#0F1A2A" stroke-width="1.5" stroke-linecap="round"/>
<path d="M15.5799 18.8203C15.5768 19.7025 15.2249 20.5477 14.6011 21.1715C13.9773 21.7953 13.1321 22.1472 12.2499 22.1503C11.3678 22.1472 10.5229 21.7948 9.89992 21.1703C9.27541 20.5474 8.92305 19.7024 8.91992 18.8203" stroke="#27364B" stroke-width="1.5"/>
</svg>
