<svg width="20" height="20" viewBox="0 0 20 20" fill="none" xmlns="http://www.w3.org/2000/svg">
<path d="M15.8332 7.50005C15.8391 8.8962 15.3408 10.2476 14.4298 11.3055C13.5188 12.3635 12.2564 13.057 10.8748 13.2584C10.2958 13.3584 9.70388 13.3584 9.12483 13.2584C8.02073 13.0909 6.98792 12.61 6.14909 11.8728C5.31025 11.1356 4.70065 10.1731 4.39269 9.09969C4.08474 8.02626 4.09137 6.88699 4.41181 5.81722C4.73225 4.74745 5.35302 3.79214 6.20039 3.06477C7.04775 2.33741 8.08609 1.86856 9.19207 1.71392C10.298 1.55928 11.4252 1.72535 12.4395 2.1924C13.4539 2.65946 14.3129 3.40786 14.9145 4.34871C15.516 5.28957 15.8349 6.38332 15.8332 7.50005V7.50005Z" stroke="#27364B" stroke-width="1.5" stroke-linecap="round" stroke-linejoin="round"/>
<path d="M17.7085 15.3917L16.3335 15.7167C16.183 15.7508 16.0452 15.8268 15.9361 15.9359C15.827 16.045 15.751 16.1828 15.7169 16.3333L15.4252 17.5583C15.3894 17.7087 15.3125 17.8462 15.2031 17.9553C15.0937 18.0645 14.9561 18.1411 14.8056 18.1766C14.6552 18.212 14.4978 18.2049 14.3512 18.1561C14.2045 18.1072 14.0743 18.0186 13.9752 17.9L10.0002 13.3333L6.02519 17.9083C5.92604 18.0269 5.79586 18.1156 5.64921 18.1644C5.50256 18.2133 5.34522 18.2204 5.19477 18.1849C5.04432 18.1495 4.90669 18.0729 4.79728 17.9637C4.68786 17.8545 4.61097 17.717 4.57519 17.5667L4.28352 16.3417C4.24772 16.192 4.17115 16.0551 4.0623 15.9462C3.95345 15.8374 3.81657 15.7608 3.66686 15.725L2.29186 15.4C2.14731 15.3662 2.01442 15.2943 1.90694 15.1919C1.79946 15.0895 1.72128 14.9603 1.6805 14.8175C1.63972 14.6748 1.63781 14.5237 1.67496 14.38C1.71212 14.2363 1.787 14.1051 1.89186 14L5.14186 10.75C5.59373 11.424 6.18152 11.996 6.8675 12.4294C7.55348 12.8628 8.32249 13.148 9.12519 13.2667C9.41411 13.3172 9.70689 13.3422 10.0002 13.3417C10.2935 13.3422 10.5863 13.3172 10.8752 13.2667C11.6779 13.148 12.4469 12.8628 13.1329 12.4294C13.8189 11.996 14.4067 11.424 14.8585 10.75L18.1085 14C18.2112 14.1053 18.2842 14.2359 18.3201 14.3785C18.356 14.5211 18.3535 14.6707 18.3129 14.812C18.2722 14.9534 18.1949 15.0815 18.0888 15.1833C17.9826 15.2851 17.8514 15.357 17.7085 15.3917V15.3917Z" stroke="#27364B" stroke-width="1.5" stroke-linecap="round" stroke-linejoin="round"/>
<path d="M10.4836 4.9835L10.9752 5.96683C11.0175 6.04097 11.075 6.1053 11.1439 6.15558C11.2129 6.20585 11.2917 6.24093 11.3752 6.2585L12.2669 6.4085C12.8336 6.50016 12.9669 6.91683 12.5586 7.32516L11.8669 8.01683C11.8055 8.08478 11.7607 8.16608 11.7361 8.2543C11.7116 8.34252 11.7078 8.43525 11.7252 8.52516L11.9252 9.3835C12.0836 10.0585 11.7252 10.3252 11.1252 9.96683L10.2919 9.47516C10.2073 9.42994 10.1128 9.40627 10.0169 9.40627C9.92095 9.40627 9.82649 9.42994 9.74188 9.47516L8.90522 9.96683C8.30522 10.3168 7.94689 10.0585 8.10522 9.3835L8.30522 8.52516C8.32005 8.43523 8.31505 8.34314 8.29058 8.25533C8.26611 8.16753 8.22276 8.08613 8.16355 8.01683L7.47189 7.32516C7.06355 6.91683 7.19689 6.5085 7.76355 6.4085L8.65522 6.2585C8.73713 6.23962 8.81423 6.20395 8.88165 6.15375C8.94907 6.10355 9.00533 6.0399 9.04688 5.96683L9.54188 4.9835C9.78355 4.45016 10.2169 4.45016 10.4836 4.9835Z" stroke="#27364B" stroke-width="1.5" stroke-linecap="round" stroke-linejoin="round"/>
</svg>
