<svg width="20" height="20" viewBox="0 0 20 20" fill="none" xmlns="http://www.w3.org/2000/svg">
<path d="M12.8024 1.86449C13.0482 2.20286 13.1882 2.60654 13.2046 3.02447C13.221 3.44239 13.1132 3.8558 12.8946 4.21242C12.6761 4.56904 12.3567 4.85284 11.9769 5.02795C11.597 5.20305 11.1738 5.26159 10.7607 5.19616C10.3476 5.13074 9.96319 4.94428 9.65606 4.66037C9.34893 4.37646 9.13289 4.00785 9.03525 3.60116C8.93761 3.19446 8.96276 2.76795 9.10753 2.37555C9.25229 1.98315 9.51016 1.64249 9.84853 1.39665C10.3023 1.06699 10.8684 0.931077 11.4223 1.01881C11.9763 1.10655 12.4727 1.41075 12.8024 1.86449Z" stroke="#27364B" stroke-width="1.5" stroke-linecap="round" stroke-linejoin="round"/>
<path d="M7.56299 12.6416L10.4144 10.5699" stroke="#27364B" stroke-width="1.5" stroke-linecap="round" stroke-linejoin="round"/>
<path d="M9.22021 14.9229L14.3527 11.1939" stroke="#27364B" stroke-width="1.5" stroke-linecap="round" stroke-linejoin="round"/>
<path d="M6.99716 3.46845L4.14576 5.54011C1.29437 7.61177 0.982472 9.58099 3.05413 12.4324L5.54012 15.8541C7.61178 18.7055 9.581 19.0173 12.4324 16.9457L15.8541 14.4597C18.7055 12.388 19.0174 10.4188 16.9457 7.56742L14.874 4.71602" stroke="#27364B" stroke-width="1.5" stroke-linecap="round" stroke-linejoin="round"/>
</svg>
