<svg width="20" height="20" viewBox="0 0 20 20" fill="none" xmlns="http://www.w3.org/2000/svg">
<path d="M18.3334 10.0001V14.1668C18.3669 14.7227 18.2821 15.2794 18.0846 15.8002C17.8871 16.3209 17.5813 16.7938 17.1875 17.1876C16.7937 17.5814 16.3208 17.8872 15.8001 18.0847C15.2794 18.2822 14.7226 18.367 14.1667 18.3335H5.83339C5.27747 18.367 4.72075 18.2822 4.20002 18.0847C3.6793 17.8872 3.20641 17.5814 2.8126 17.1876C2.41878 16.7938 2.11301 16.3209 1.91549 15.8002C1.71796 15.2794 1.63317 14.7227 1.66672 14.1668V10.0001C1.60001 8.99484 1.92713 8.00302 2.57883 7.23466C3.23054 6.46631 4.15567 5.98172 5.15839 5.88348C5.38179 5.84964 5.60744 5.83293 5.83339 5.83348H14.1667C14.3758 5.83019 14.5849 5.84413 14.7917 5.87514C15.8042 5.9632 16.7418 6.44429 17.4038 7.21533C18.0658 7.98638 18.3995 8.98605 18.3334 10.0001Z" stroke="#27364B" stroke-width="1.5" stroke-linecap="round" stroke-linejoin="round"/>
<path d="M14.7925 5.8748C14.5857 5.84379 14.3766 5.82985 14.1675 5.83314H5.83418C5.60823 5.83259 5.38258 5.8493 5.15918 5.88314C5.28442 5.64197 5.44761 5.42251 5.64251 5.23314L8.35085 2.51647C8.90086 1.97195 9.64355 1.6665 10.4175 1.6665C11.1915 1.6665 11.9342 1.97195 12.4842 2.51647L13.9425 3.99147C14.4546 4.48861 14.7585 5.1619 14.7925 5.8748V5.8748Z" stroke="#27364B" stroke-width="1.5" stroke-linecap="round" stroke-linejoin="round"/>
<path d="M18.3332 10.4165H15.8332C15.3911 10.4165 14.9672 10.5921 14.6547 10.9047C14.3421 11.2172 14.1665 11.6411 14.1665 12.0832C14.1665 12.5252 14.3421 12.9491 14.6547 13.2617C14.9672 13.5742 15.3911 13.7498 15.8332 13.7498H18.3332" stroke="#27364B" stroke-width="1.5" stroke-linecap="round" stroke-linejoin="round"/>
</svg>
