<svg width="28" height="28" viewBox="0 0 28 28" fill="none" xmlns="http://www.w3.org/2000/svg">
<path d="M14.0002 2.33337C11.6927 2.33337 9.43709 3.01761 7.51852 4.29956C5.59994 5.58151 4.1046 7.4036 3.22157 9.5354C2.33855 11.6672 2.10751 14.013 2.55767 16.2761C3.00783 18.5392 4.11898 20.618 5.75059 22.2496C7.3822 23.8812 9.461 24.9924 11.7241 25.4425C13.9872 25.8927 16.333 25.6617 18.4648 24.7786C20.5966 23.8956 22.4187 22.4003 23.7006 20.4817C24.9826 18.5631 25.6668 16.3075 25.6668 14C25.6619 10.9074 24.4311 7.94277 22.2443 5.75591C20.0574 3.56906 17.0928 2.33831 14.0002 2.33337ZM19.5768 11.3167L12.9618 17.9317C12.8808 18.0131 12.7844 18.0777 12.6783 18.1218C12.5722 18.1659 12.4584 18.1886 12.3435 18.1886C12.2286 18.1886 12.1148 18.1659 12.0087 18.1218C11.9026 18.0777 11.8062 18.0131 11.7252 17.9317L8.4235 14.63C8.33753 14.5499 8.26858 14.4533 8.22076 14.346C8.17293 14.2387 8.14722 14.1228 8.14514 14.0053C8.14307 13.8878 8.16468 13.7711 8.20869 13.6622C8.2527 13.5532 8.3182 13.4543 8.40129 13.3712C8.48438 13.2881 8.58335 13.2226 8.6923 13.1786C8.80126 13.1346 8.91796 13.1129 9.03544 13.115C9.15293 13.1171 9.2688 13.1428 9.37613 13.1906C9.48346 13.2385 9.58006 13.3074 9.66017 13.3934L12.3435 16.0767L18.3402 10.08C18.506 9.92548 18.7254 9.84134 18.9521 9.84534C19.1788 9.84934 19.3951 9.94117 19.5554 10.1015C19.7157 10.2618 19.8075 10.4781 19.8115 10.7048C19.8155 10.9314 19.7314 11.1508 19.5768 11.3167Z" fill="#48A659"/>
</svg>
