<svg width="24" height="24" viewBox="0 0 24 24" fill="none" xmlns="http://www.w3.org/2000/svg">
<path d="M21.4451 13.6399V14.6399C21.4451 14.7708 21.3938 14.8965 21.3022 14.9899C21.2106 15.0834 21.086 15.1373 20.9551 15.1399H19.5001C19.2426 15.1467 18.9917 15.0573 18.7966 14.889C18.6015 14.7207 18.4761 14.4857 18.4451 14.2299C18.4316 14.0834 18.4507 13.9358 18.5008 13.7975C18.5509 13.6592 18.6309 13.5337 18.7351 13.4299C18.8263 13.3355 18.936 13.2611 19.0573 13.2112C19.1786 13.1612 19.309 13.137 19.4401 13.1399H20.9451C21.0777 13.1399 21.2049 13.1926 21.2987 13.2863C21.3924 13.3801 21.4451 13.5073 21.4451 13.6399Z" fill="#FFAA33"/>
<path d="M17.9902 12.6899C17.7315 12.9416 17.545 13.258 17.45 13.6062C17.355 13.9544 17.3551 14.3217 17.4502 14.6699C17.5929 15.1197 17.8777 15.511 18.2618 15.785C18.6459 16.0591 19.1085 16.2012 19.5802 16.1899H20.4502C20.7154 16.1899 20.9698 16.2953 21.1573 16.4828C21.3448 16.6703 21.4502 16.9247 21.4502 17.1899V17.3799C21.4481 18.3765 21.0513 19.3316 20.3466 20.0363C19.6419 20.741 18.6868 21.1378 17.6902 21.1399H6.2102C5.21364 21.1378 4.25849 20.741 3.55382 20.0363C2.84914 19.3316 2.45232 18.3765 2.4502 17.3799V10.6499C2.44911 10.0675 2.58418 9.493 2.84462 8.97212C3.10506 8.45124 3.48366 7.99845 3.9502 7.64991C4.59925 7.15454 5.39372 6.88737 6.2102 6.88991H17.6902C18.6868 6.89202 19.6419 7.28884 20.3466 7.99352C21.0513 8.6982 21.4481 9.65335 21.4502 10.6499V11.0899C21.4502 11.3551 21.3448 11.6095 21.1573 11.797C20.9698 11.9846 20.7154 12.0899 20.4502 12.0899H19.4302C19.1622 12.0879 18.8965 12.1401 18.6491 12.2432C18.4016 12.3463 18.1775 12.4982 17.9902 12.6899Z" fill="#F58F00"/>
<path d="M16.2 4.81996C16.2565 4.88113 16.2932 4.95801 16.3052 5.04046C16.3172 5.1229 16.3039 5.20704 16.267 5.28178C16.2302 5.35651 16.1716 5.41832 16.0989 5.45906C16.0262 5.4998 15.9429 5.51754 15.86 5.50996L8.18097 5.49996C8.0831 5.49859 7.98779 5.46852 7.90686 5.41349C7.82592 5.35846 7.76291 5.28089 7.72565 5.19038C7.68838 5.09988 7.6785 5.00044 7.69722 4.90437C7.71594 4.8083 7.76244 4.71985 7.83097 4.64996L9.45097 3.01996C10.111 2.36654 11.0022 2 11.931 2C12.8597 2 13.7509 2.36654 14.411 3.01996L16.161 4.78996C16.17 4.79996 16.19 4.80996 16.2 4.81996Z" fill="#FFAA33"/>
</svg>
