<svg width="25" height="24" viewBox="0 0 25 24" fill="none" xmlns="http://www.w3.org/2000/svg">
<path d="M22.75 12.0001V17.0001C22.7902 17.6672 22.6885 18.3352 22.4514 18.9601C22.2144 19.585 21.8475 20.1525 21.3749 20.625C20.9023 21.0976 20.3349 21.4645 19.71 21.7016C19.0851 21.9386 18.4171 22.0403 17.75 22.0001H7.74997C7.08286 22.0403 6.41481 21.9386 5.78993 21.7016C5.16506 21.4645 4.59759 21.0976 4.12502 20.625C3.65244 20.1525 3.28552 19.585 3.04849 18.9601C2.81145 18.3352 2.70971 17.6672 2.74997 17.0001V12.0001C2.66991 10.7937 3.06245 9.60353 3.8445 8.6815C4.62655 7.75947 5.73671 7.17796 6.93997 7.06008C7.20805 7.01947 7.47883 6.99941 7.74997 7.00008H17.75C18.0009 6.99613 18.2518 7.01286 18.5 7.05008C19.7149 7.15574 20.8401 7.73305 21.6345 8.6583C22.4289 9.58356 22.8293 10.7832 22.75 12.0001Z" stroke="#0F1A2A" stroke-width="1.5" stroke-linecap="round" stroke-linejoin="round"/>
<path d="M18.5009 7.04996C18.2527 7.01274 18.0019 6.99602 17.7509 6.99996H7.75092C7.47978 6.9993 7.209 7.01936 6.94092 7.05996C7.09121 6.77056 7.28704 6.5072 7.52092 6.27996L10.7709 3.01996C11.4309 2.36654 12.3222 2 13.2509 2C14.1797 2 15.0709 2.36654 15.7309 3.01996L17.4809 4.78996C18.0954 5.38653 18.4601 6.19447 18.5009 7.04996V7.04996Z" stroke="#0F1A2A" stroke-width="1.5" stroke-linecap="round" stroke-linejoin="round"/>
<path d="M22.75 12.5H19.75C19.2196 12.5 18.7109 12.7107 18.3358 13.0858C17.9607 13.4609 17.75 13.9696 17.75 14.5C17.75 15.0304 17.9607 15.5391 18.3358 15.9142C18.7109 16.2893 19.2196 16.5 19.75 16.5H22.75" stroke="#0F1A2A" stroke-width="1.5" stroke-linecap="round" stroke-linejoin="round"/>
</svg>
